<?xml version="1.0" encoding="UTF-8"?>
<!DOCTYPE svg PUBLIC "-//W3C//DTD SVG 1.1//EN" "http://www.w3.org/Graphics/SVG/1.1/DTD/svg11.dtd">
<svg xmlns="http://www.w3.org/2000/svg" version="1.1" width="512px" height="512px" style="shape-rendering:geometricPrecision; text-rendering:geometricPrecision; image-rendering:optimizeQuality; fill-rule:evenodd; clip-rule:evenodd" xmlns:xlink="http://www.w3.org/1999/xlink">
<g><path style="opacity:0.021" fill="#43443f" d="M -0.5,-0.5 C 0.166667,-0.5 0.833333,-0.5 1.5,-0.5C 1.16667,0.5 0.5,1.16667 -0.5,1.5C -0.5,0.833333 -0.5,0.166667 -0.5,-0.5 Z"/></g>
<g><path style="opacity:0.022" fill="#43443f" d="M 16.5,-0.5 C 18.1667,-0.5 19.8333,-0.5 21.5,-0.5C 14.5,7.16667 7.16667,14.5 -0.5,21.5C -0.5,19.8333 -0.5,18.1667 -0.5,16.5C 5.5,11.1667 11.1667,5.5 16.5,-0.5 Z"/></g>
<g><path style="opacity:0.022" fill="#43443f" d="M 36.5,-0.5 C 38.1667,-0.5 39.8333,-0.5 41.5,-0.5C 27.8333,13.8333 13.8333,27.8333 -0.5,41.5C -0.5,39.8333 -0.5,38.1667 -0.5,36.5C 12.1667,24.5 24.5,12.1667 36.5,-0.5 Z"/></g>
<g><path style="opacity:0.022" fill="#43443f" d="M 56.5,-0.5 C 58.1667,-0.5 59.8333,-0.5 61.5,-0.5C 41.1667,20.5 20.5,41.1667 -0.5,61.5C -0.5,59.8333 -0.5,58.1667 -0.5,56.5C 18.8333,37.8333 37.8333,18.8333 56.5,-0.5 Z"/></g>
<g><path style="opacity:0.022" fill="#43443f" d="M 76.5,-0.5 C 78.1667,-0.5 79.8333,-0.5 81.5,-0.5C 54.5,27.1667 27.1667,54.5 -0.5,81.5C -0.5,79.8333 -0.5,78.1667 -0.5,76.5C 25.5,51.1667 51.1667,25.5 76.5,-0.5 Z"/></g>
<g><path style="opacity:0.022" fill="#43443f" d="M 96.5,-0.5 C 98.1667,-0.5 99.8333,-0.5 101.5,-0.5C 67.8333,33.8333 33.8333,67.8333 -0.5,101.5C -0.5,99.8333 -0.5,98.1667 -0.5,96.5C 32.1667,64.5 64.5,32.1667 96.5,-0.5 Z"/></g>
<g><path style="opacity:0.022" fill="#43443f" d="M 116.5,-0.5 C 118.167,-0.5 119.833,-0.5 121.5,-0.5C 81.1667,40.5 40.5,81.1667 -0.5,121.5C -0.5,119.833 -0.5,118.167 -0.5,116.5C 38.8333,77.8333 77.8333,38.8333 116.5,-0.5 Z"/></g>
<g><path style="opacity:0.022" fill="#43443f" d="M 136.5,-0.5 C 138.167,-0.5 139.833,-0.5 141.5,-0.5C 94.5,47.1667 47.1667,94.5 -0.5,141.5C -0.5,139.833 -0.5,138.167 -0.5,136.5C 45.5,91.1667 91.1667,45.5 136.5,-0.5 Z"/></g>
<g><path style="opacity:0.022" fill="#43443f" d="M 156.5,-0.5 C 158.167,-0.5 159.833,-0.5 161.5,-0.5C 107.833,53.8333 53.8333,107.833 -0.5,161.5C -0.5,159.833 -0.5,158.167 -0.5,156.5C 52.1667,104.5 104.5,52.1667 156.5,-0.5 Z"/></g>
<g><path style="opacity:0.022" fill="#43443f" d="M 176.5,-0.5 C 178.167,-0.5 179.833,-0.5 181.5,-0.5C 121.167,60.5 60.5,121.167 -0.5,181.5C -0.5,179.833 -0.5,178.167 -0.5,176.5C 58.8333,117.833 117.833,58.8333 176.5,-0.5 Z"/></g>
<g><path style="opacity:0.022" fill="#43443f" d="M 196.5,-0.5 C 198.167,-0.5 199.833,-0.5 201.5,-0.5C 134.5,67.1667 67.1667,134.5 -0.5,201.5C -0.5,199.833 -0.5,198.167 -0.5,196.5C 65.5,131.167 131.167,65.5 196.5,-0.5 Z"/></g>
<g><path style="opacity:0.022" fill="#43443f" d="M 216.5,-0.5 C 218.167,-0.5 219.833,-0.5 221.5,-0.5C 147.833,73.8333 73.8333,147.833 -0.5,221.5C -0.5,219.833 -0.5,218.167 -0.5,216.5C 72.1667,144.5 144.5,72.1667 216.5,-0.5 Z"/></g>
<g><path style="opacity:0.022" fill="#43443f" d="M 236.5,-0.5 C 238.167,-0.5 239.833,-0.5 241.5,-0.5C 161.167,80.5 80.5,161.167 -0.5,241.5C -0.5,239.833 -0.5,238.167 -0.5,236.5C 78.8333,157.833 157.833,78.8333 236.5,-0.5 Z"/></g>
<g><path style="opacity:0.022" fill="#43443f" d="M 256.5,-0.5 C 258.167,-0.5 259.833,-0.5 261.5,-0.5C 236.833,24.5 212.167,49.5 187.5,74.5C 185.5,74.8333 183.5,75.1667 181.5,75.5C 206.5,50.1667 231.5,24.8333 256.5,-0.5 Z"/></g>
<g><path style="opacity:0.022" fill="#43433f" d="M 276.5,-0.5 C 278.167,-0.5 279.833,-0.5 281.5,-0.5C 262.5,18.8333 243.5,38.1667 224.5,57.5C 223.833,57.5 223.5,57.8333 223.5,58.5C 219.816,60.5283 216.15,62.5283 212.5,64.5C 233.833,42.8333 255.167,21.1667 276.5,-0.5 Z"/></g>
<g><path style="opacity:0.022" fill="#43443f" d="M 296.5,-0.5 C 298.167,-0.5 299.833,-0.5 301.5,-0.5C 284.167,17.1667 266.833,34.8333 249.5,52.5C 247.565,53.1495 245.565,53.4828 243.5,53.5C 261.167,35.5 278.833,17.5 296.5,-0.5 Z"/></g>
<g><path style="opacity:0.022" fill="#43443f" d="M 316.5,-0.5 C 318.167,-0.5 319.833,-0.5 321.5,-0.5C 303.833,17.5 286.167,35.5 268.5,53.5C 266.833,53.5 265.167,53.5 263.5,53.5C 281.167,35.5 298.833,17.5 316.5,-0.5 Z"/></g>
<g><path style="opacity:0.022" fill="#43443f" d="M 336.5,-0.5 C 338.167,-0.5 339.833,-0.5 341.5,-0.5C 322.833,18.5 304.167,37.5 285.5,56.5C 283.901,56.7678 282.568,56.4345 281.5,55.5C 299.833,36.8333 318.167,18.1667 336.5,-0.5 Z"/></g>
<g><path style="opacity:0.022" fill="#43443f" d="M 356.5,-0.5 C 358.167,-0.5 359.833,-0.5 361.5,-0.5C 341.167,20.1667 320.833,40.8333 300.5,61.5C 299.041,61.5674 297.708,61.2341 296.5,60.5C 316.5,40.1667 336.5,19.8333 356.5,-0.5 Z"/></g>
<g><path style="opacity:0.022" fill="#43443f" d="M 376.5,-0.5 C 378.167,-0.5 379.833,-0.5 381.5,-0.5C 358.833,22.8333 335.833,45.8333 312.5,68.5C 311.29,68.0679 310.29,67.4013 309.5,66.5C 332.167,44.5 354.5,22.1667 376.5,-0.5 Z"/></g>
<g><path style="opacity:0.022" fill="#444440" d="M 396.5,-0.5 C 398.167,-0.5 399.833,-0.5 401.5,-0.5C 375.833,25.5 350.167,51.5 324.5,77.5C 323.29,77.0679 322.29,76.4013 321.5,75.5C 346.5,50.1667 371.5,24.8333 396.5,-0.5 Z"/></g>
<g><path style="opacity:0.022" fill="#43443f" d="M 416.5,-0.5 C 418.167,-0.5 419.833,-0.5 421.5,-0.5C 392.5,29.1667 363.167,58.5 333.5,87.5C 332.5,87.1667 331.833,86.5 331.5,85.5C 359.833,56.8333 388.167,28.1667 416.5,-0.5 Z"/></g>
<g><path style="opacity:0.022" fill="#43433f" d="M 436.5,-0.5 C 438.167,-0.5 439.833,-0.5 441.5,-0.5C 408.167,33.1667 374.833,66.8333 341.5,100.5C 340.326,99.4863 339.66,98.153 339.5,96.5C 372.167,64.5 404.5,32.1667 436.5,-0.5 Z"/></g>
<g><path style="opacity:0.022" fill="#43433f" d="M 456.5,-0.5 C 458.167,-0.5 459.833,-0.5 461.5,-0.5C 423.5,37.8333 385.5,76.1667 347.5,114.5C 346.326,113.486 345.66,112.153 345.5,110.5C 382.833,73.8333 419.833,36.8333 456.5,-0.5 Z"/></g>
<g><path style="opacity:0.022" fill="#43443f" d="M 476.5,-0.5 C 478.167,-0.5 479.833,-0.5 481.5,-0.5C 438.167,43.5 394.5,87.1667 350.5,130.5C 349.566,129.432 349.232,128.099 349.5,126.5C 392.167,84.5 434.5,42.1667 476.5,-0.5 Z"/></g>
<g><path style="opacity:0.022" fill="#43443f" d="M 496.5,-0.5 C 498.167,-0.5 499.833,-0.5 501.5,-0.5C 452.5,48.8333 403.5,98.1667 354.5,147.5C 353.326,146.486 352.66,145.153 352.5,143.5C 400.833,95.8333 448.833,47.8333 496.5,-0.5 Z"/></g>
<g><path style="opacity:0.022" fill="#43443f" d="M 511.5,5.5 C 511.5,7.16667 511.5,8.83333 511.5,10.5C 460.5,61.1667 409.5,111.833 358.5,162.5C 358.5,160.833 358.5,159.167 358.5,157.5C 409.5,106.833 460.5,56.1667 511.5,5.5 Z"/></g>
<g><path style="opacity:0.022" fill="#43443f" d="M 511.5,25.5 C 511.5,27.1667 511.5,28.8333 511.5,30.5C 460.5,81.1667 409.5,131.833 358.5,182.5C 358.5,180.833 358.5,179.167 358.5,177.5C 409.5,126.833 460.5,76.1667 511.5,25.5 Z"/></g>
<g><path style="opacity:0.022" fill="#43443f" d="M 511.5,45.5 C 511.5,47.1667 511.5,48.8333 511.5,50.5C 460.167,101.167 409.167,152.167 358.5,203.5C 357.427,201.653 357.427,199.653 358.5,197.5C 409.5,146.833 460.5,96.1667 511.5,45.5 Z"/></g>
<g><path style="opacity:0.99" fill="#353433" d="M 249.5,52.5 C 254.119,53.3136 258.786,53.6469 263.5,53.5C 265.167,53.5 266.833,53.5 268.5,53.5C 272.772,54.4897 277.106,55.1563 281.5,55.5C 282.568,56.4345 283.901,56.7678 285.5,56.5C 289.086,57.8087 292.752,59.1421 296.5,60.5C 297.708,61.2341 299.041,61.5674 300.5,61.5C 303.304,63.4046 306.304,65.0713 309.5,66.5C 310.29,67.4013 311.29,68.0679 312.5,68.5C 315.642,70.5805 318.642,72.9138 321.5,75.5C 322.29,76.4013 323.29,77.0679 324.5,77.5C 326.862,80.192 329.196,82.8587 331.5,85.5C 331.833,86.5 332.5,87.1667 333.5,87.5C 335.265,90.7089 337.265,93.7089 339.5,96.5C 339.66,98.153 340.326,99.4863 341.5,100.5C 343.028,103.749 344.361,107.082 345.5,110.5C 345.66,112.153 346.326,113.486 347.5,114.5C 348.295,118.476 348.962,122.476 349.5,126.5C 349.232,128.099 349.566,129.432 350.5,130.5C 350.334,134.514 350.501,138.514 351,142.5C 351.383,143.056 351.883,143.389 352.5,143.5C 352.66,145.153 353.326,146.486 354.5,147.5C 356.369,150.578 357.702,153.911 358.5,157.5C 358.5,159.167 358.5,160.833 358.5,162.5C 358.5,167.5 358.5,172.5 358.5,177.5C 358.5,179.167 358.5,180.833 358.5,182.5C 358.5,187.5 358.5,192.5 358.5,197.5C 357.427,199.653 357.427,201.653 358.5,203.5C 358.739,207.842 359.073,212.176 359.5,216.5C 359.5,218.167 359.5,219.833 359.5,221.5C 358.835,224.803 358.168,228.137 357.5,231.5C 358.035,233.261 359.035,234.594 360.5,235.5C 360.66,237.153 361.326,238.486 362.5,239.5C 363.913,242.661 365.58,245.661 367.5,248.5C 368.167,249.5 368.833,250.5 369.5,251.5C 371.167,254.833 372.833,258.167 374.5,261.5C 374.66,263.153 375.326,264.486 376.5,265.5C 377.703,269.11 378.703,272.777 379.5,276.5C 380.024,278.306 380.691,279.972 381.5,281.5C 381.848,285.258 382.515,288.924 383.5,292.5C 383.5,294.167 383.5,295.833 383.5,297.5C 384.1,302.567 384.1,307.567 383.5,312.5C 383.5,314.167 383.5,315.833 383.5,317.5C 382.833,323.167 382.167,328.833 381.5,334.5C 380.833,334.5 380.5,334.833 380.5,335.5C 380.167,337.5 379.833,339.5 379.5,341.5C 378.316,342.688 378.316,343.855 379.5,345C 382.824,345.943 386.157,346.776 389.5,347.5C 390.708,348.234 392.041,348.567 393.5,348.5C 397.031,349.975 400.698,351.308 404.5,352.5C 405.959,352.433 407.292,352.766 408.5,353.5C 412.501,354.5 416.501,355.5 420.5,356.5C 421.708,357.234 423.041,357.567 424.5,357.5C 428.031,358.975 431.698,360.308 435.5,361.5C 436.209,362.404 437.209,362.737 438.5,362.5C 441.642,364.58 444.642,366.914 447.5,369.5C 448.167,370.167 448.833,370.833 449.5,371.5C 451.748,374.328 453.748,377.328 455.5,380.5C 455.989,381.995 456.655,383.329 457.5,384.5C 458.803,388.382 459.47,392.382 459.5,396.5C 460.234,397.708 460.567,399.041 460.5,400.5C 461.49,404.772 462.156,409.106 462.5,413.5C 462.833,414.833 463.167,416.167 463.5,417.5C 463.816,420.978 463.316,424.312 462,427.5C 457.031,430.321 451.864,432.654 446.5,434.5C 443.833,435.5 441.167,436.5 438.5,437.5C 437.833,437.5 437.5,437.833 437.5,438.5C 430.178,440.829 422.845,443.163 415.5,445.5C 413.254,446.455 410.921,447.122 408.5,447.5C 407.833,447.5 407.5,447.833 407.5,448.5C 400.35,450.037 393.35,452.037 386.5,454.5C 384.379,454.325 382.379,454.659 380.5,455.5C 373.733,456.858 367.066,458.525 360.5,460.5C 358.379,460.325 356.379,460.659 354.5,461.5C 348.394,462.073 342.394,463.073 336.5,464.5C 334.379,464.325 332.379,464.659 330.5,465.5C 324.738,465.732 319.072,466.399 313.5,467.5C 311.833,467.5 310.167,467.5 308.5,467.5C 303.203,468.275 297.87,468.608 292.5,468.5C 290.565,469.15 288.565,469.483 286.5,469.5C 281.5,469.5 276.5,469.5 271.5,469.5C 269.435,469.517 267.435,469.85 265.5,470.5C 260.5,470.5 255.5,470.5 250.5,470.5C 248.833,470.5 247.167,470.5 245.5,470.5C 240.848,470.002 236.181,469.669 231.5,469.5C 229.833,469.5 228.167,469.5 226.5,469.5C 221.786,469.647 217.119,469.314 212.5,468.5C 210.833,468.5 209.167,468.5 207.5,468.5C 202.87,467.771 198.203,467.437 193.5,467.5C 192.432,466.566 191.099,466.232 189.5,466.5C 185.092,466.075 180.758,465.408 176.5,464.5C 174.833,464.5 173.167,464.5 171.5,464.5C 167.733,463.205 163.733,462.539 159.5,462.5C 158.081,461.549 156.415,461.216 154.5,461.5C 150.615,460.51 146.615,459.51 142.5,458.5C 141.041,458.567 139.708,458.234 138.5,457.5C 134.4,456.808 130.4,455.808 126.5,454.5C 125.041,454.567 123.708,454.234 122.5,453.5C 118.416,452.812 114.416,451.812 110.5,450.5C 109.292,449.766 107.959,449.433 106.5,449.5C 102.981,448.036 99.3139,447.036 95.5,446.5C 94.3285,445.655 92.9952,444.989 91.5,444.5C 87.7207,443.442 84.0541,442.109 80.5,440.5C 79.1667,440.167 77.8333,439.833 76.5,439.5C 72.9795,437.771 69.3128,436.438 65.5,435.5C 64.791,434.596 63.791,434.263 62.5,434.5C 59.1637,432.269 55.497,430.603 51.5,429.5C 51.0269,428.094 50.0269,427.427 48.5,427.5C 47.6274,423.232 47.2941,418.898 47.5,414.5C 48.1667,414.5 48.5,414.167 48.5,413.5C 48.5172,411.435 48.8505,409.435 49.5,407.5C 50.2755,401.847 50.9421,396.18 51.5,390.5C 52.1667,390.5 52.5,390.167 52.5,389.5C 52.8782,387.079 53.5448,384.746 54.5,382.5C 58.8333,372.833 65.8333,365.833 75.5,361.5C 77.7457,360.545 80.079,359.878 82.5,359.5C 83.1667,359.5 83.5,359.167 83.5,358.5C 90.2345,356.978 96.9012,355.145 103.5,353C 106.183,346.766 107.85,340.266 108.5,333.5C 108.5,331.833 108.5,330.167 108.5,328.5C 108.563,323.797 108.229,319.13 107.5,314.5C 107.5,312.833 107.5,311.167 107.5,309.5C 107.5,304.833 107.5,300.167 107.5,295.5C 106.725,293.612 106.725,291.612 107.5,289.5C 107.324,284.12 107.658,278.787 108.5,273.5C 108.833,271.5 109.167,269.5 109.5,267.5C 106.628,267.233 103.628,266.899 100.5,266.5C 102.076,264.021 103.076,261.354 103.5,258.5C 104.167,258.5 104.5,258.167 104.5,257.5C 105.566,255.299 106.233,252.965 106.5,250.5C 107.234,249.292 107.567,247.959 107.5,246.5C 104.753,246.813 102.086,246.48 99.5,245.5C 102.99,242.356 105.657,238.69 107.5,234.5C 108.167,234.5 108.5,234.167 108.5,233.5C 109.566,231.299 110.233,228.965 110.5,226.5C 110.84,220.792 111.507,215.125 112.5,209.5C 113.167,209.5 113.5,209.167 113.5,208.5C 113.833,206.5 114.167,204.5 114.5,202.5C 117.486,195.859 120.486,189.193 123.5,182.5C 122.311,181.571 120.978,181.238 119.5,181.5C 117.833,181.5 116.167,181.5 114.5,181.5C 112.801,181.66 111.134,181.494 109.5,181C 117.376,173.407 123.376,164.574 127.5,154.5C 128.939,152.412 129.606,150.079 129.5,147.5C 131.477,140.927 133.143,134.26 134.5,127.5C 135.167,127.5 135.5,127.167 135.5,126.5C 136.5,123.833 137.5,121.167 138.5,118.5C 143.846,103.651 152.846,91.4842 165.5,82C 170.529,78.9823 175.862,76.8156 181.5,75.5C 183.5,75.1667 185.5,74.8333 187.5,74.5C 192.801,73.8227 198.134,73.3227 203.5,73C 206.369,69.9621 209.369,67.1288 212.5,64.5C 216.15,62.5283 219.816,60.5283 223.5,58.5C 224.167,58.5 224.5,58.1667 224.5,57.5C 230.662,55.4008 236.995,54.0675 243.5,53.5C 245.565,53.4828 247.565,53.1495 249.5,52.5 Z"/></g>
<g><path style="opacity:0.022" fill="#43443f" d="M 511.5,65.5 C 511.5,67.1667 511.5,68.8333 511.5,70.5C 460.833,120.833 410.167,171.167 359.5,221.5C 359.5,219.833 359.5,218.167 359.5,216.5C 410.167,166.167 460.833,115.833 511.5,65.5 Z"/></g>
<g><path style="opacity:0.022" fill="#43443f" d="M 511.5,85.5 C 511.5,87.1667 511.5,88.8333 511.5,90.5C 461.5,139.833 411.833,189.5 362.5,239.5C 361.326,238.486 360.66,237.153 360.5,235.5C 410.833,185.5 461.167,135.5 511.5,85.5 Z"/></g>
<g><path style="opacity:0.022" fill="#43443f" d="M 511.5,105.5 C 511.5,107.167 511.5,108.833 511.5,110.5C 464.167,157.5 416.833,204.5 369.5,251.5C 368.833,250.5 368.167,249.5 367.5,248.5C 415.5,200.833 463.5,153.167 511.5,105.5 Z"/></g>
<g><path style="opacity:1" fill="#df6150" d="M 203.5,195.5 C 202.432,194.566 201.099,194.232 199.5,194.5C 199.333,179.163 199.5,163.83 200,148.5C 201.638,140.581 204.638,133.247 209,126.5C 213.086,122.584 216.919,118.584 220.5,114.5C 246.177,107.117 271.511,108.283 296.5,118C 297.184,119.693 298.184,121.193 299.5,122.5C 295.5,125.833 295.5,129.167 299.5,132.5C 295.566,135.958 295.566,139.458 299.5,143C 296.878,146.13 296.878,149.297 299.5,152.5C 298.523,156.159 298.69,159.826 300,163.5C 300.414,163.957 300.914,164.291 301.5,164.5C 302.957,162.725 304.124,160.725 305,158.5C 305.687,156.432 305.52,154.432 304.5,152.5C 307.46,148.878 307.127,145.711 303.5,143C 307.057,139.818 307.391,136.318 304.5,132.5C 307.122,129.297 307.122,126.13 304.5,123C 305.908,122.685 307.241,123.018 308.5,124C 321.712,132.878 332.545,144.045 341,157.5C 341.5,168.828 341.667,180.162 341.5,191.5C 295.673,197.857 249.673,199.191 203.5,195.5 Z"/></g>
<g><path style="opacity:0.022" fill="#43433f" d="M 138.5,118.5 C 137.5,121.167 136.5,123.833 135.5,126.5C 134.833,126.5 134.5,126.833 134.5,127.5C 89.5,172.167 44.5,216.833 -0.5,261.5C -0.5,259.833 -0.5,258.167 -0.5,256.5C 45.8333,210.5 92.1667,164.5 138.5,118.5 Z"/></g>
<g><path style="opacity:0.022" fill="#43443f" d="M 511.5,125.5 C 511.5,127.167 511.5,128.833 511.5,130.5C 466.167,175.167 421.167,220.167 376.5,265.5C 375.326,264.486 374.66,263.153 374.5,261.5C 420.167,216.167 465.833,170.833 511.5,125.5 Z"/></g>
<g><path style="opacity:0.022" fill="#444440" d="M 511.5,145.5 C 511.5,147.167 511.5,148.833 511.5,150.5C 467.45,193.549 424.117,237.216 381.5,281.5C 380.691,279.972 380.024,278.306 379.5,276.5C 423.5,232.833 467.5,189.167 511.5,145.5 Z"/></g>
<g><path style="opacity:0.022" fill="#43443f" d="M 129.5,147.5 C 129.606,150.079 128.939,152.412 127.5,154.5C 84.8333,196.833 42.1667,239.167 -0.5,281.5C -0.5,279.833 -0.5,278.167 -0.5,276.5C 42.8333,233.5 86.1667,190.5 129.5,147.5 Z"/></g>
<g><path style="opacity:1" fill="#ce5649" d="M 220.5,114.5 C 216.919,118.584 213.086,122.584 209,126.5C 204.638,133.247 201.638,140.581 200,148.5C 199.5,163.83 199.333,179.163 199.5,194.5C 201.099,194.232 202.432,194.566 203.5,195.5C 198.819,195.331 194.152,194.998 189.5,194.5C 189.333,179.163 189.5,163.83 190,148.5C 192.594,130.276 202.761,118.943 220.5,114.5 Z"/></g>
<g><path style="opacity:0.022" fill="#43443f" d="M 511.5,165.5 C 511.5,167.167 511.5,168.833 511.5,170.5C 468.833,212.833 426.167,255.167 383.5,297.5C 383.5,295.833 383.5,294.167 383.5,292.5C 426.167,250.167 468.833,207.833 511.5,165.5 Z"/></g>
<g><path style="opacity:0.022" fill="#43443f" d="M 114.5,181.5 C 116.167,181.5 117.833,181.5 119.5,181.5C 79.8333,221.833 39.8333,261.833 -0.5,301.5C -0.5,299.833 -0.5,298.167 -0.5,296.5C 38.1667,258.5 76.5,220.167 114.5,181.5 Z"/></g>
<g><path style="opacity:0.022" fill="#43443f" d="M 511.5,185.5 C 511.5,187.167 511.5,188.833 511.5,190.5C 468.833,232.833 426.167,275.167 383.5,317.5C 383.5,315.833 383.5,314.167 383.5,312.5C 426.167,270.167 468.833,227.833 511.5,185.5 Z"/></g>
<g><path style="opacity:0.022" fill="#43443f" d="M 114.5,202.5 C 114.167,204.5 113.833,206.5 113.5,208.5C 112.833,208.5 112.5,208.833 112.5,209.5C 74.8333,246.833 37.1667,284.167 -0.5,321.5C -0.5,319.833 -0.5,318.167 -0.5,316.5C 37.8333,278.5 76.1667,240.5 114.5,202.5 Z"/></g>
<g><path style="opacity:0.022" fill="#43443f" d="M 511.5,205.5 C 511.5,207.167 511.5,208.833 511.5,210.5C 467.5,254.167 423.5,297.833 379.5,341.5C 379.833,339.5 380.167,337.5 380.5,335.5C 381.167,335.5 381.5,335.167 381.5,334.5C 424.833,291.5 468.167,248.5 511.5,205.5 Z"/></g>
<g><path style="opacity:1" fill="#3a3937" d="M 215.5,216.5 C 222.661,215.997 225.661,219.33 224.5,226.5C 226.167,226.5 227.833,226.5 229.5,226.5C 229.714,228.144 229.38,229.644 228.5,231C 225.178,233.332 221.511,234.498 217.5,234.5C 213.56,234.242 209.893,233.076 206.5,231C 205.663,229.989 205.33,228.822 205.5,227.5C 207.604,227.799 209.604,227.466 211.5,226.5C 209.551,221.743 210.885,218.41 215.5,216.5 Z"/></g>
<g><path style="opacity:1" fill="#e1bb9b" d="M 199.5,211.5 C 200.331,241.911 200.331,272.244 199.5,302.5C 195.134,300.301 191.968,296.968 190,292.5C 189.5,265.169 189.333,237.835 189.5,210.5C 192.833,210.833 196.167,211.167 199.5,211.5 Z"/></g>
<g><path style="opacity:0.022" fill="#43443f" d="M 511.5,225.5 C 511.5,227.167 511.5,228.833 511.5,230.5C 471.833,269.5 432.5,308.833 393.5,348.5C 392.041,348.567 390.708,348.234 389.5,347.5C 429.833,306.5 470.5,265.833 511.5,225.5 Z"/></g>
<g><path style="opacity:0.022" fill="#43433f" d="M 110.5,226.5 C 110.233,228.965 109.566,231.299 108.5,233.5C 107.833,233.5 107.5,233.833 107.5,234.5C 71.5,270.167 35.5,305.833 -0.5,341.5C -0.5,339.833 -0.5,338.167 -0.5,336.5C 36.5,299.833 73.5,263.167 110.5,226.5 Z"/></g>
<g><path style="opacity:1" fill="#e2bb9c" d="M 309.5,211.5 C 315.113,211.957 317.78,214.957 317.5,220.5C 313.938,220.564 312.271,222.397 312.5,226C 312.188,229.215 313.522,231.382 316.5,232.5C 318.145,236.4 316.978,239.067 313,240.5C 312.333,243.167 312.333,245.833 313,248.5C 314.11,250.037 315.61,250.703 317.5,250.5C 317.5,252.5 317.5,254.5 317.5,256.5C 311.433,258.064 309.933,261.73 313,267.5C 314.113,268.305 315.279,268.972 316.5,269.5C 316.5,270.833 316.5,272.167 316.5,273.5C 314.629,273.859 313.129,274.859 312,276.5C 310.812,280.741 311.645,284.408 314.5,287.5C 313.85,289.435 313.517,291.435 313.5,293.5C 312.263,294.965 311.263,296.632 310.5,298.5C 300.197,306.992 289.864,315.492 279.5,324C 277.863,324.601 276.197,325.101 274.5,325.5C 267.93,321.301 260.764,318.635 253,317.5C 246.393,318.256 240.559,320.756 235.5,325C 233.833,325.667 232.167,325.667 230.5,325C 222.649,319.303 214.982,313.47 207.5,307.5C 209.411,306.925 211.078,305.925 212.5,304.5C 213.117,304.611 213.617,304.944 214,305.5C 215.231,297.075 219.065,290.242 225.5,285C 227.518,284.495 229.518,283.995 231.5,283.5C 233.052,285.035 234.385,286.869 235.5,289C 247.5,289.667 259.5,289.667 271.5,289C 272.615,286.869 273.948,285.035 275.5,283.5C 280.23,283.782 284.063,285.782 287,289.5C 289.607,294.38 291.94,299.38 294,304.5C 299.608,291.877 296.774,281.711 285.5,274C 278.67,271.468 271.67,269.635 264.5,268.5C 266.976,266.47 269.809,264.803 273,263.5C 274.073,259.905 272.739,257.905 269,257.5C 264.011,259.441 258.845,260.441 253.5,260.5C 247.392,259.966 241.392,259.132 235.5,258C 233.675,259.466 233.175,261.299 234,263.5C 237.174,265.271 240.34,266.937 243.5,268.5C 233.151,269.225 223.817,272.559 215.5,278.5C 216.154,263.912 216.821,249.246 217.5,234.5C 221.511,234.498 225.178,233.332 228.5,231C 229.38,229.644 229.714,228.144 229.5,226.5C 227.833,226.5 226.167,226.5 224.5,226.5C 225.661,219.33 222.661,215.997 215.5,216.5C 216.718,215.839 218.051,215.172 219.5,214.5C 219.137,213.817 218.804,213.15 218.5,212.5C 248.855,214.008 279.188,213.675 309.5,211.5 Z"/></g>
<g><path style="opacity:1" fill="#393836" d="M 285.5,216.5 C 293.666,215.002 297.333,218.336 296.5,226.5C 300.138,225.737 301.638,227.07 301,230.5C 294.112,235.056 286.946,235.556 279.5,232C 277.963,230.89 277.297,229.39 277.5,227.5C 279.857,227.663 282.19,227.497 284.5,227C 281.864,223.31 282.197,219.81 285.5,216.5 Z"/></g>
<g><path style="opacity:1" fill="#464544" d="M 309.5,211.5 C 313.683,210.189 318.016,210.189 322.5,211.5C 317.572,215.064 317.405,218.731 322,222.5C 322.667,225.167 322.667,227.833 322,230.5C 319.456,231.21 318.289,232.876 318.5,235.5C 320.598,238.297 322.265,241.464 323.5,245C 322.026,247.967 320.36,250.801 318.5,253.5C 320.899,256.298 322.566,259.631 323.5,263.5C 323.038,267.578 320.705,269.578 316.5,269.5C 315.279,268.972 314.113,268.305 313,267.5C 309.933,261.73 311.433,258.064 317.5,256.5C 317.5,254.5 317.5,252.5 317.5,250.5C 315.61,250.703 314.11,250.037 313,248.5C 312.333,245.833 312.333,243.167 313,240.5C 316.978,239.067 318.145,236.4 316.5,232.5C 313.522,231.382 312.188,229.215 312.5,226C 312.271,222.397 313.938,220.564 317.5,220.5C 317.78,214.957 315.113,211.957 309.5,211.5 Z"/></g>
<g><path style="opacity:0.022" fill="#43443f" d="M 511.5,245.5 C 511.5,247.167 511.5,248.833 511.5,250.5C 476.833,284.5 442.5,318.833 408.5,353.5C 407.292,352.766 405.959,352.433 404.5,352.5C 439.833,316.5 475.5,280.833 511.5,245.5 Z"/></g>
<g><path style="opacity:0.022" fill="#43443f" d="M 106.5,250.5 C 106.233,252.965 105.566,255.299 104.5,257.5C 103.833,257.5 103.5,257.833 103.5,258.5C 68.8333,292.833 34.1667,327.167 -0.5,361.5C -0.5,359.833 -0.5,358.167 -0.5,356.5C 35.1667,321.167 70.8333,285.833 106.5,250.5 Z"/></g>
<g><path style="opacity:1" fill="#ae856a" d="M 264.5,268.5 C 257.5,268.5 250.5,268.5 243.5,268.5C 240.34,266.937 237.174,265.271 234,263.5C 233.175,261.299 233.675,259.466 235.5,258C 241.392,259.132 247.392,259.966 253.5,260.5C 258.845,260.441 264.011,259.441 269,257.5C 272.739,257.905 274.073,259.905 273,263.5C 269.809,264.803 266.976,266.47 264.5,268.5 Z"/></g>
<g><path style="opacity:0.022" fill="#43443f" d="M 511.5,265.5 C 511.5,267.167 511.5,268.833 511.5,270.5C 482.167,299.167 453.167,328.167 424.5,357.5C 423.041,357.567 421.708,357.234 420.5,356.5C 450.5,325.833 480.833,295.5 511.5,265.5 Z"/></g>
<g><path style="opacity:0.022" fill="#43443f" d="M 109.5,267.5 C 109.167,269.5 108.833,271.5 108.5,273.5C 72.1667,309.5 35.8333,345.5 -0.5,381.5C -0.5,379.833 -0.5,378.167 -0.5,376.5C 36.1667,340.167 72.8333,303.833 109.5,267.5 Z"/></g>
<g><path style="opacity:1" fill="#ecc6a3" d="M 199.5,211.5 C 205.815,212.11 212.149,212.443 218.5,212.5C 218.804,213.15 219.137,213.817 219.5,214.5C 218.051,215.172 216.718,215.839 215.5,216.5C 210.885,218.41 209.551,221.743 211.5,226.5C 209.604,227.466 207.604,227.799 205.5,227.5C 205.33,228.822 205.663,229.989 206.5,231C 209.893,233.076 213.56,234.242 217.5,234.5C 216.821,249.246 216.154,263.912 215.5,278.5C 210.067,286.574 209.067,295.24 212.5,304.5C 211.078,305.925 209.411,306.925 207.5,307.5C 204.46,306.32 201.794,304.653 199.5,302.5C 200.331,272.244 200.331,241.911 199.5,211.5 Z"/></g>
<g><path style="opacity:1" fill="#373635" d="M 243.5,268.5 C 250.5,268.5 257.5,268.5 264.5,268.5C 271.67,269.635 278.67,271.468 285.5,274C 296.774,281.711 299.608,291.877 294,304.5C 291.94,299.38 289.607,294.38 287,289.5C 284.063,285.782 280.23,283.782 275.5,283.5C 271.516,282.824 267.516,281.824 263.5,280.5C 259.397,280.356 256.064,278.689 253.5,275.5C 251.24,278.464 248.24,280.131 244.5,280.5C 240.017,281.373 235.683,282.373 231.5,283.5C 229.518,283.995 227.518,284.495 225.5,285C 219.065,290.242 215.231,297.075 214,305.5C 213.617,304.944 213.117,304.611 212.5,304.5C 209.067,295.24 210.067,286.574 215.5,278.5C 223.817,272.559 233.151,269.225 243.5,268.5 Z"/></g>
<g><path style="opacity:1" fill="#434342" d="M 338.5,268.5 C 345.745,267.963 348.578,271.296 347,278.5C 342.904,284.067 339.237,283.734 336,277.5C 335.131,274.007 335.964,271.007 338.5,268.5 Z"/></g>
<g><path style="opacity:1" fill="#454544" d="M 316.5,273.5 C 318.827,273.247 320.827,273.914 322.5,275.5C 325.69,283.838 323.024,287.838 314.5,287.5C 311.645,284.408 310.812,280.741 312,276.5C 313.129,274.859 314.629,273.859 316.5,273.5 Z"/></g>
<g><path style="opacity:1" fill="#d9b597" d="M 263.5,280.5 C 257.167,281.833 250.833,281.833 244.5,280.5C 248.24,280.131 251.24,278.464 253.5,275.5C 256.064,278.689 259.397,280.356 263.5,280.5 Z"/></g>
<g><path style="opacity:1" fill="#ac8368" d="M 244.5,280.5 C 250.833,281.833 257.167,281.833 263.5,280.5C 267.516,281.824 271.516,282.824 275.5,283.5C 273.948,285.035 272.615,286.869 271.5,289C 259.5,289.667 247.5,289.667 235.5,289C 234.385,286.869 233.052,285.035 231.5,283.5C 235.683,282.373 240.017,281.373 244.5,280.5 Z"/></g>
<g><path style="opacity:1" fill="#434342" d="M 171.5,284.5 C 178.409,284.953 180.909,288.62 179,295.5C 175.952,299.01 172.619,299.343 169,296.5C 167.773,291.938 168.607,287.938 171.5,284.5 Z"/></g>
<g><path style="opacity:0.022" fill="#43433f" d="M 511.5,285.5 C 511.5,287.167 511.5,288.833 511.5,290.5C 487.167,314.5 462.833,338.5 438.5,362.5C 437.209,362.737 436.209,362.404 435.5,361.5C 460.5,335.833 485.833,310.5 511.5,285.5 Z"/></g>
<g><path style="opacity:1" fill="#d0a755" d="M 144.5,286.5 C 148.911,286.021 153.078,286.688 157,288.5C 157.667,293.167 157.667,297.833 157,302.5C 156.167,303.333 155.333,304.167 154.5,305C 142.147,306.957 137.981,301.79 142,289.5C 143.045,288.627 143.878,287.627 144.5,286.5 Z"/></g>
<g><path style="opacity:1" fill="#434343" d="M 338.5,287.5 C 345.825,286.992 348.658,290.326 347,297.5C 341.117,302.22 337.283,300.887 335.5,293.5C 335.984,291.199 336.984,289.199 338.5,287.5 Z"/></g>
<g><path style="opacity:0.022" fill="#434340" d="M 107.5,289.5 C 106.725,291.612 106.725,293.612 107.5,295.5C 106.761,295.369 106.094,295.536 105.5,296C 70.2987,331.368 34.9654,366.535 -0.5,401.5C -0.5,399.833 -0.5,398.167 -0.5,396.5C 35.5,360.833 71.5,325.167 107.5,289.5 Z"/></g>
<g><path style="opacity:1" fill="#434342" d="M 310.5,298.5 C 311.263,296.632 312.263,294.965 313.5,293.5C 321.603,291.1 324.77,294.1 323,302.5C 321.136,305.207 318.636,306.041 315.5,305C 313.206,303.22 311.539,301.053 310.5,298.5 Z"/></g>
<g><path style="opacity:1" fill="#383735" d="M 241.5,297.5 C 249.507,297.334 257.507,297.5 265.5,298C 266.022,298.561 266.355,299.228 266.5,300C 262.991,305.009 258.657,309.176 253.5,312.5C 249.515,309.016 245.682,305.349 242,301.5C 241.51,300.207 241.343,298.873 241.5,297.5 Z"/></g>
<g><path style="opacity:1" fill="#434343" d="M 122.5,300.5 C 130.322,300.166 133.156,303.833 131,311.5C 126.927,315.619 123.26,315.285 120,310.5C 119.024,306.673 119.857,303.34 122.5,300.5 Z"/></g>
<g><path style="opacity:1" fill="#434343" d="M 170.5,302.5 C 178.322,302.166 181.156,305.833 179,313.5C 174.837,317.747 171.171,317.414 168,312.5C 167.024,308.673 167.857,305.34 170.5,302.5 Z"/></g>
<g><path style="opacity:1" fill="#ca5747" d="M 339.5,302.5 C 348.722,303.605 351.889,308.605 349,317.5C 342.333,323.5 337,322.5 333,314.5C 332.339,308.989 334.506,304.989 339.5,302.5 Z"/></g>
<g><path style="opacity:0.022" fill="#43443f" d="M 511.5,305.5 C 511.5,307.167 511.5,308.833 511.5,310.5C 490.833,330.833 470.167,351.167 449.5,371.5C 448.833,370.833 448.167,370.167 447.5,369.5C 468.5,347.833 489.833,326.5 511.5,305.5 Z"/></g>
<g><path style="opacity:0.022" fill="#43443f" d="M 107.5,309.5 C 107.5,311.167 107.5,312.833 107.5,314.5C 71.5,350.167 35.5,385.833 -0.5,421.5C -0.5,419.833 -0.5,418.167 -0.5,416.5C 35.5,380.833 71.5,345.167 107.5,309.5 Z"/></g>
<g><path style="opacity:1" fill="#434343" d="M 314.5,310.5 C 321.825,309.992 324.658,313.326 323,320.5C 319.619,324.485 316.286,324.485 313,320.5C 312.037,316.851 312.537,313.518 314.5,310.5 Z"/></g>
<g><path style="opacity:1" fill="#434343" d="M 122.5,318.5 C 131.351,318.368 133.684,322.202 129.5,330C 125.543,332.385 122.376,331.552 120,327.5C 119.131,324.007 119.964,321.007 122.5,318.5 Z"/></g>
<g><path style="opacity:1" fill="#434342" d="M 171.5,319.5 C 178.865,319.714 181.365,323.38 179,330.5C 176.029,334.092 172.696,334.425 169,331.5C 167.773,326.938 168.607,322.938 171.5,319.5 Z"/></g>
<g><path style="opacity:1" fill="#434342" d="M 363.5,319.5 C 370.409,319.953 372.909,323.62 371,330.5C 366.912,334.466 363.246,334.133 360,329.5C 358.756,325.191 359.923,321.858 363.5,319.5 Z"/></g>
<g><path style="opacity:1" fill="#434343" d="M 338.5,323.5 C 347.497,323.486 349.83,327.486 345.5,335.5C 337.02,337.506 334.187,334.172 337,325.5C 337.717,324.956 338.217,324.289 338.5,323.5 Z"/></g>
<g><path style="opacity:0.022" fill="#43433f" d="M 511.5,325.5 C 511.5,327.167 511.5,328.833 511.5,330.5C 493.167,348.167 475.167,366.167 457.5,384.5C 456.655,383.329 455.989,381.995 455.5,380.5C 474.167,362.167 492.833,343.833 511.5,325.5 Z"/></g>
<g><path style="opacity:0.022" fill="#43433f" d="M 108.5,328.5 C 108.5,330.167 108.5,331.833 108.5,333.5C 99.8333,341.5 91.5,349.833 83.5,358.5C 82.8333,358.5 82.5,358.833 82.5,359.5C 80.079,359.878 77.7457,360.545 75.5,361.5C 86.1667,350.167 97.1667,339.167 108.5,328.5 Z"/></g>
<g><path style="opacity:1" fill="#434343" d="M 363.5,336.5 C 369.139,336.139 371.806,338.806 371.5,344.5C 370.696,349.79 367.696,351.623 362.5,350C 359.585,345.176 359.919,340.676 363.5,336.5 Z"/></g>
<g><path style="opacity:1" fill="#e3b58e" d="M 230.5,365.5 C 221.5,356.833 212.5,348.167 203.5,339.5C 205.117,335.386 205.951,331.053 206,326.5C 210.546,330.714 215.379,334.547 220.5,338C 223.206,339.908 226.206,340.741 229.5,340.5C 229.461,343.81 230.794,346.476 233.5,348.5C 228.274,353.247 228.274,357.913 233.5,362.5C 232.812,363.855 231.812,364.855 230.5,365.5 Z"/></g>
<g><path style="opacity:1" fill="#434342" d="M 348.5,353.5 C 345.729,355.086 342.729,355.586 339.5,355C 337.329,353.826 336.329,351.993 336.5,349.5C 336.488,344.675 338.821,342.509 343.5,343C 345.333,343.5 346.5,344.667 347,346.5C 347.29,348.92 347.79,351.254 348.5,353.5 Z"/></g>
<g><path style="opacity:0.022" fill="#43433f" d="M 511.5,345.5 C 511.5,347.167 511.5,348.833 511.5,350.5C 494.5,367.167 477.5,383.833 460.5,400.5C 460.567,399.041 460.234,397.708 459.5,396.5C 476.833,379.5 494.167,362.5 511.5,345.5 Z"/></g>
<g><path style="opacity:1" fill="#60503d" d="M 336.5,349.5 C 336.329,351.993 337.329,353.826 339.5,355C 342.729,355.586 345.729,355.086 348.5,353.5C 353.665,354.414 358.665,355.914 363.5,358C 361.653,360.579 361.153,363.412 362,366.5C 362.71,367.973 363.876,368.64 365.5,368.5C 365.74,372.969 365.073,377.302 363.5,381.5C 365.428,401.753 366.095,422.087 365.5,442.5C 338.433,447.952 311.1,451.285 283.5,452.5C 292.666,425.838 302.666,399.504 313.5,373.5C 319.759,377.293 322.259,375.626 321,368.5C 319.604,366.473 317.938,366.14 316,367.5C 316.09,362.575 318.09,358.575 322,355.5C 322.498,352.518 322.665,349.518 322.5,346.5C 327.239,347.185 331.906,348.185 336.5,349.5 Z"/></g>
<g><path style="opacity:1" fill="#60503d" d="M 166.5,350.5 C 167.833,350.5 169.167,350.5 170.5,350.5C 170.756,352.937 171.423,355.271 172.5,357.5C 168.532,360.914 168.532,364.414 172.5,368C 173.784,368.684 174.951,368.517 176,367.5C 187.198,395.264 197.698,423.264 207.5,451.5C 179.787,449.857 152.621,445.19 126,437.5C 125.333,423.833 125.333,410.167 126,396.5C 129.2,394.08 129.2,391.747 126,389.5C 125.833,388 125.667,386.5 125.5,385C 126.19,381.678 127.523,378.678 129.5,376C 129.505,373.837 128.505,372.337 126.5,371.5C 125.52,368.914 125.187,366.247 125.5,363.5C 132.372,361.099 139.372,359.099 146.5,357.5C 145.942,363.555 148.109,364.888 153,361.5C 153.497,359.19 153.663,356.857 153.5,354.5C 158.165,353.922 162.499,352.589 166.5,350.5 Z"/></g>
<g><path style="opacity:1" fill="#e4b58e" d="M 261.5,396.5 C 256.167,391.5 250.833,386.5 245.5,381.5C 244.763,379.695 243.763,378.029 242.5,376.5C 246.807,371.544 246.473,367.044 241.5,363C 246.756,358.208 246.756,353.542 241.5,349C 242.5,348 243.5,347 244.5,346C 250.859,345.169 257.193,345.336 263.5,346.5C 264.167,347.167 264.833,347.833 265.5,348.5C 260.274,353.247 260.274,357.913 265.5,362.5C 260.274,367.247 260.274,371.913 265.5,376.5C 260.212,381.295 260.212,386.128 265.5,391C 263.536,392.451 262.203,394.284 261.5,396.5 Z"/></g>
<g><path style="opacity:1" fill="#444443" d="M 339.5,363.5 C 346.628,363.706 348.294,366.873 344.5,373C 338.498,373.993 336.332,371.493 338,365.5C 338.717,364.956 339.217,364.289 339.5,363.5 Z"/></g>
<g><path style="opacity:1" fill="#fbfbfb" d="M 381.5,363.5 C 395.827,367.218 410.16,371.051 424.5,375C 432.841,377.341 438.674,382.507 442,390.5C 443.626,398.298 445.126,406.131 446.5,414C 446.415,415.107 446.081,416.107 445.5,417C 424.667,425.556 403.334,432.389 381.5,437.5C 381.5,412.833 381.5,388.167 381.5,363.5 Z"/></g>
<g><path style="opacity:1" fill="#e3b58e" d="M 279.5,414.5 C 276.167,411.833 273.167,408.833 270.5,405.5C 274.948,404.717 277.281,402.05 277.5,397.5C 277.321,394.809 276.321,392.475 274.5,390.5C 278.5,385.833 278.5,381.167 274.5,376.5C 278.807,371.544 278.473,367.044 273.5,363C 278.756,358.208 278.756,353.542 273.5,349C 276.321,346.859 277.654,344.025 277.5,340.5C 282.077,340.05 286.41,338.716 290.5,336.5C 296.563,337.506 302.23,339.506 307.5,342.5C 298.335,366.678 289.002,390.678 279.5,414.5 Z"/></g>
<g><path style="opacity:0.022" fill="#43433f" d="M 511.5,365.5 C 511.5,367.167 511.5,368.833 511.5,370.5C 495.5,386.167 479.5,401.833 463.5,417.5C 463.167,416.167 462.833,414.833 462.5,413.5C 478.833,397.5 495.167,381.5 511.5,365.5 Z"/></g>
<g><path style="opacity:1" fill="#545453" d="M 109.5,368.5 C 110.828,390.004 110.828,411.67 109.5,433.5C 108.893,433.376 108.56,433.043 108.5,432.5C 109.497,411.34 109.831,390.007 109.5,368.5 Z"/></g>
<g><path style="opacity:1" fill="#fbfbfb" d="M 109.5,368.5 C 109.831,390.007 109.497,411.34 108.5,432.5C 93.87,428.234 79.5366,423.067 65.5,417C 64.9186,416.107 64.5852,415.107 64.5,414C 65.7958,407.188 66.9624,400.355 68,393.5C 70.3407,385.159 75.5074,379.326 83.5,376C 92.0969,373.189 100.764,370.689 109.5,368.5 Z"/></g>
<g><path style="opacity:1" fill="#caa253" d="M 134.5,380.5 C 135.833,380.5 137.167,380.5 138.5,380.5C 140.768,388.405 138.268,390.738 131,387.5C 130.333,386.167 130.333,384.833 131,383.5C 132.518,382.837 133.685,381.837 134.5,380.5 Z"/></g>
<g><path style="opacity:1" fill="#cfa554" d="M 161.5,380.5 C 164.088,380.543 166.254,381.543 168,383.5C 168.72,385.112 168.554,386.612 167.5,388C 159.956,390.279 157.956,387.779 161.5,380.5 Z"/></g>
<g><path style="opacity:1" fill="#cba253" d="M 267.5,379.5 C 273.488,379.664 274.821,382.164 271.5,387C 265.403,387.147 264.07,384.647 267.5,379.5 Z"/></g>
<g><path style="opacity:1" fill="#cba353" d="M 235.5,379.5 C 241.488,379.664 242.821,382.164 239.5,387C 233.403,387.147 232.07,384.647 235.5,379.5 Z"/></g>
<g><path style="opacity:1" fill="#474543" d="M 340.5,381.5 C 346.643,382.026 347.976,384.86 344.5,390C 339.502,391.33 337.336,389.496 338,384.5C 338.698,383.309 339.531,382.309 340.5,381.5 Z"/></g>
<g><path style="opacity:0.022" fill="#43433f" d="M 54.5,382.5 C 53.5448,384.746 52.8782,387.079 52.5,389.5C 51.8333,389.5 51.5,389.833 51.5,390.5C 34.1667,407.5 16.8333,424.5 -0.5,441.5C -0.5,439.833 -0.5,438.167 -0.5,436.5C 17.8333,418.5 36.1667,400.5 54.5,382.5 Z"/></g>
<g><path style="opacity:0.022" fill="#43443f" d="M 511.5,385.5 C 511.5,387.167 511.5,388.833 511.5,390.5C 470.833,430.5 430.5,470.833 390.5,511.5C 388.833,511.5 387.167,511.5 385.5,511.5C 427.167,469.167 469.167,427.167 511.5,385.5 Z"/></g>
<g><path style="opacity:1" fill="#464543" d="M 316.5,385.5 C 320.976,385.822 322.476,388.156 321,392.5C 317.509,395.446 315.342,394.612 314.5,390C 314.519,388.167 315.185,386.667 316.5,385.5 Z"/></g>
<g><path style="opacity:1" fill="#d0a654" d="M 145.5,385.5 C 152.701,384.35 157.868,387.017 161,393.5C 161.667,397.5 161.667,401.5 161,405.5C 157.956,406.803 156.789,409.136 157.5,412.5C 156.5,412.5 155.5,412.5 154.5,412.5C 154.5,411.5 154.5,410.5 154.5,409.5C 153.5,409.5 152.5,409.5 151.5,409.5C 151.5,410.5 151.5,411.5 151.5,412.5C 150.5,412.5 149.5,412.5 148.5,412.5C 148.5,411.5 148.5,410.5 148.5,409.5C 147.5,409.5 146.5,409.5 145.5,409.5C 145.5,410.5 145.5,411.5 145.5,412.5C 144.5,412.5 143.5,412.5 142.5,412.5C 142.785,410.712 142.452,409.045 141.5,407.5C 140.186,406.687 139.019,405.687 138,404.5C 135.552,396.081 138.052,389.747 145.5,385.5 Z"/></g>
<g><path style="opacity:1" fill="#edc6a3" d="M 203.5,339.5 C 212.5,348.167 221.5,356.833 230.5,365.5C 228.591,369.956 229.591,373.623 233.5,376.5C 228.212,381.295 228.212,386.128 233.5,391C 228.808,394.653 228.308,398.819 232,403.5C 239.164,407.333 243.664,405.333 245.5,397.5C 245.321,394.809 244.321,392.475 242.5,390.5C 244.874,387.972 245.874,384.972 245.5,381.5C 250.833,386.5 256.167,391.5 261.5,396.5C 261.616,402.405 264.616,405.405 270.5,405.5C 273.167,408.833 276.167,411.833 279.5,414.5C 275.41,427.353 270.743,440.019 265.5,452.5C 252.183,453.499 238.85,453.833 225.5,453.5C 212.604,417.867 199.27,382.367 185.5,347C 185.645,346.228 185.978,345.561 186.5,345C 192.293,343.458 197.96,341.624 203.5,339.5 Z"/></g>
<g><path style="opacity:1" fill="#64533d" d="M 142.5,397.5 C 146.35,397.701 147.35,399.534 145.5,403C 141.537,403.118 140.537,401.284 142.5,397.5 Z"/></g>
<g><path style="opacity:1" fill="#63533d" d="M 154.5,397.5 C 158.35,397.701 159.35,399.534 157.5,403C 153.537,403.118 152.537,401.284 154.5,397.5 Z"/></g>
<g><path style="opacity:1" fill="#454443" d="M 340.5,400.5 C 345.337,401.238 346.671,403.904 344.5,408.5C 340.876,410.396 338.876,409.396 338.5,405.5C 338.437,403.486 339.103,401.819 340.5,400.5 Z"/></g>
<g><path style="opacity:1" fill="#69573e" d="M 148.5,403.5 C 150.465,403.948 150.798,404.948 149.5,406.5C 148.614,405.675 148.281,404.675 148.5,403.5 Z"/></g>
<g><path style="opacity:0.022" fill="#43443f" d="M 511.5,405.5 C 511.5,407.167 511.5,408.833 511.5,410.5C 477.5,443.833 443.833,477.5 410.5,511.5C 408.833,511.5 407.167,511.5 405.5,511.5C 440.5,475.833 475.833,440.5 511.5,405.5 Z"/></g>
<g><path style="opacity:0.022" fill="#43433f" d="M 49.5,407.5 C 48.8505,409.435 48.5172,411.435 48.5,413.5C 47.8333,413.5 47.5,413.833 47.5,414.5C 31.5,430.167 15.5,445.833 -0.5,461.5C -0.5,459.833 -0.5,458.167 -0.5,456.5C 16.1667,440.167 32.8333,423.833 49.5,407.5 Z"/></g>
<g><path style="opacity:1" fill="#cba253" d="M 136.5,408.5 C 137.496,408.414 138.329,408.748 139,409.5C 139.627,419.903 136.794,420.903 130.5,412.5C 132.01,410.311 134.01,408.977 136.5,408.5 Z"/></g>
<g><path style="opacity:1" fill="#c9a153" d="M 161.5,408.5 C 168.831,409.319 170.164,412.486 165.5,418C 163.866,418.494 162.199,418.66 160.5,418.5C 160.253,415.061 160.586,411.728 161.5,408.5 Z"/></g>
<g><path style="opacity:0.022" fill="#43443f" d="M 511.5,425.5 C 511.5,427.167 511.5,428.833 511.5,430.5C 484.167,457.167 457.167,484.167 430.5,511.5C 428.833,511.5 427.167,511.5 425.5,511.5C 453.833,482.5 482.5,453.833 511.5,425.5 Z"/></g>
<g><path style="opacity:0.022" fill="#43433f" d="M 48.5,427.5 C 50.0269,427.427 51.0269,428.094 51.5,429.5C 34.5,447.167 17.1667,464.5 -0.5,481.5C -0.5,479.833 -0.5,478.167 -0.5,476.5C 16.1667,460.5 32.5,444.167 48.5,427.5 Z"/></g>
<g><path style="opacity:0.022" fill="#43443f" d="M 62.5,434.5 C 63.791,434.263 64.791,434.596 65.5,435.5C 43.8333,457.833 21.8333,479.833 -0.5,501.5C -0.5,499.833 -0.5,498.167 -0.5,496.5C 20.5,475.833 41.5,455.167 62.5,434.5 Z"/></g>
<g><path style="opacity:0.022" fill="#43433f" d="M 446.5,434.5 C 421.167,460.167 395.833,485.833 370.5,511.5C 368.833,511.5 367.167,511.5 365.5,511.5C 389.5,487.167 413.5,462.833 437.5,438.5C 438.167,438.5 438.5,438.167 438.5,437.5C 441.167,436.5 443.833,435.5 446.5,434.5 Z"/></g>
<g><path style="opacity:0.022" fill="#43443f" d="M 76.5,439.5 C 77.8333,439.833 79.1667,440.167 80.5,440.5C 57.1667,464.167 33.8333,487.833 10.5,511.5C 8.83333,511.5 7.16667,511.5 5.5,511.5C 29.1667,487.5 52.8333,463.5 76.5,439.5 Z"/></g>
<g><path style="opacity:0.022" fill="#43443f" d="M 91.5,444.5 C 92.9952,444.989 94.3285,445.655 95.5,446.5C 73.5,467.833 51.8333,489.5 30.5,511.5C 28.8333,511.5 27.1667,511.5 25.5,511.5C 47.5,489.167 69.5,466.833 91.5,444.5 Z"/></g>
<g><path style="opacity:0.022" fill="#43443f" d="M 511.5,445.5 C 511.5,447.167 511.5,448.833 511.5,450.5C 490.833,470.5 470.5,490.833 450.5,511.5C 448.833,511.5 447.167,511.5 445.5,511.5C 467.167,489.167 489.167,467.167 511.5,445.5 Z"/></g>
<g><path style="opacity:0.022" fill="#444440" d="M 415.5,445.5 C 393.833,467.5 372.167,489.5 350.5,511.5C 348.833,511.5 347.167,511.5 345.5,511.5C 366.167,490.5 386.833,469.5 407.5,448.5C 408.167,448.5 408.5,448.167 408.5,447.5C 410.921,447.122 413.254,446.455 415.5,445.5 Z"/></g>
<g><path style="opacity:0.022" fill="#444440" d="M 106.5,449.5 C 107.959,449.433 109.292,449.766 110.5,450.5C 90.5,470.833 70.5,491.167 50.5,511.5C 48.8333,511.5 47.1667,511.5 45.5,511.5C 65.8333,490.833 86.1667,470.167 106.5,449.5 Z"/></g>
<g><path style="opacity:0.022" fill="#43443f" d="M 122.5,453.5 C 123.708,454.234 125.041,454.567 126.5,454.5C 107.833,473.5 89.1667,492.5 70.5,511.5C 68.8333,511.5 67.1667,511.5 65.5,511.5C 84.5,492.167 103.5,472.833 122.5,453.5 Z"/></g>
<g><path style="opacity:0.022" fill="#43433f" d="M 386.5,454.5 C 367.833,473.5 349.167,492.5 330.5,511.5C 328.833,511.5 327.167,511.5 325.5,511.5C 343.833,492.833 362.167,474.167 380.5,455.5C 382.379,454.659 384.379,454.325 386.5,454.5 Z"/></g>
<g><path style="opacity:0.022" fill="#43443f" d="M 138.5,457.5 C 139.708,458.234 141.041,458.567 142.5,458.5C 125.167,476.167 107.833,493.833 90.5,511.5C 88.8333,511.5 87.1667,511.5 85.5,511.5C 103.167,493.5 120.833,475.5 138.5,457.5 Z"/></g>
<g><path style="opacity:0.022" fill="#43443f" d="M 360.5,460.5 C 343.833,477.5 327.167,494.5 310.5,511.5C 308.833,511.5 307.167,511.5 305.5,511.5C 321.833,494.833 338.167,478.167 354.5,461.5C 356.379,460.659 358.379,460.325 360.5,460.5 Z"/></g>
<g><path style="opacity:0.022" fill="#43443f" d="M 154.5,461.5 C 156.415,461.216 158.081,461.549 159.5,462.5C 142.833,478.5 126.5,494.833 110.5,511.5C 108.833,511.5 107.167,511.5 105.5,511.5C 121.833,494.833 138.167,478.167 154.5,461.5 Z"/></g>
<g><path style="opacity:0.022" fill="#43443f" d="M 171.5,464.5 C 173.167,464.5 174.833,464.5 176.5,464.5C 161.167,480.167 145.833,495.833 130.5,511.5C 128.833,511.5 127.167,511.5 125.5,511.5C 140.833,495.833 156.167,480.167 171.5,464.5 Z"/></g>
<g><path style="opacity:0.022" fill="#43443f" d="M 336.5,464.5 C 321.167,480.167 305.833,495.833 290.5,511.5C 288.833,511.5 287.167,511.5 285.5,511.5C 300.5,496.167 315.5,480.833 330.5,465.5C 332.379,464.659 334.379,464.325 336.5,464.5 Z"/></g>
<g><path style="opacity:0.022" fill="#43443f" d="M 511.5,465.5 C 511.5,467.167 511.5,468.833 511.5,470.5C 497.5,483.833 483.833,497.5 470.5,511.5C 468.833,511.5 467.167,511.5 465.5,511.5C 480.5,495.833 495.833,480.5 511.5,465.5 Z"/></g>
<g><path style="opacity:0.022" fill="#43443f" d="M 189.5,466.5 C 191.099,466.232 192.432,466.566 193.5,467.5C 179.167,482.167 164.833,496.833 150.5,511.5C 148.833,511.5 147.167,511.5 145.5,511.5C 160.167,496.5 174.833,481.5 189.5,466.5 Z"/></g>
<g><path style="opacity:0.022" fill="#43443f" d="M 308.5,467.5 C 310.167,467.5 311.833,467.5 313.5,467.5C 299.167,482.167 284.833,496.833 270.5,511.5C 268.833,511.5 267.167,511.5 265.5,511.5C 279.833,496.833 294.167,482.167 308.5,467.5 Z"/></g>
<g><path style="opacity:0.022" fill="#43443f" d="M 207.5,468.5 C 209.167,468.5 210.833,468.5 212.5,468.5C 198.5,482.833 184.5,497.167 170.5,511.5C 168.833,511.5 167.167,511.5 165.5,511.5C 179.5,497.167 193.5,482.833 207.5,468.5 Z"/></g>
<g><path style="opacity:0.022" fill="#43443f" d="M 226.5,469.5 C 228.167,469.5 229.833,469.5 231.5,469.5C 217.833,483.5 204.167,497.5 190.5,511.5C 188.833,511.5 187.167,511.5 185.5,511.5C 199.167,497.5 212.833,483.5 226.5,469.5 Z"/></g>
<g><path style="opacity:0.022" fill="#43443f" d="M 271.5,469.5 C 257.833,483.5 244.167,497.5 230.5,511.5C 228.833,511.5 227.167,511.5 225.5,511.5C 238.833,497.833 252.167,484.167 265.5,470.5C 267.435,469.85 269.435,469.517 271.5,469.5 Z"/></g>
<g><path style="opacity:0.022" fill="#43433f" d="M 292.5,468.5 C 278.5,482.833 264.5,497.167 250.5,511.5C 248.833,511.5 247.167,511.5 245.5,511.5C 259.167,497.5 272.833,483.5 286.5,469.5C 288.565,469.483 290.565,469.15 292.5,468.5 Z"/></g>
<g><path style="opacity:0.022" fill="#43443f" d="M 245.5,470.5 C 247.167,470.5 248.833,470.5 250.5,470.5C 237.167,484.167 223.833,497.833 210.5,511.5C 208.833,511.5 207.167,511.5 205.5,511.5C 218.833,497.833 232.167,484.167 245.5,470.5 Z"/></g>
<g><path style="opacity:0.022" fill="#43443f" d="M 511.5,485.5 C 511.5,487.167 511.5,488.833 511.5,490.5C 504.167,497.167 497.167,504.167 490.5,511.5C 488.833,511.5 487.167,511.5 485.5,511.5C 493.833,502.5 502.5,493.833 511.5,485.5 Z"/></g>
<g><path style="opacity:0.022" fill="#43443f" d="M 511.5,505.5 C 511.5,507.167 511.5,508.833 511.5,510.5C 510.833,510.5 510.5,510.833 510.5,511.5C 508.833,511.5 507.167,511.5 505.5,511.5C 507.167,509.167 509.167,507.167 511.5,505.5 Z"/></g>
</svg>
