<?xml version="1.0" encoding="UTF-8"?>
<!DOCTYPE svg PUBLIC "-//W3C//DTD SVG 1.1//EN" "http://www.w3.org/Graphics/SVG/1.1/DTD/svg11.dtd">
<svg xmlns="http://www.w3.org/2000/svg" version="1.1" width="1622px" height="1877px" style="shape-rendering:geometricPrecision; text-rendering:geometricPrecision; image-rendering:optimizeQuality; fill-rule:evenodd; clip-rule:evenodd" xmlns:xlink="http://www.w3.org/1999/xlink">
<g><path style="opacity:0.998" fill="#ff9d32" d="M 1621.5,1036.5 C 1621.5,1051.5 1621.5,1066.5 1621.5,1081.5C 1620.19,1165.27 1609.36,1247.94 1589,1329.5C 1533.56,1539.58 1407.72,1690.75 1211.5,1783C 1118.25,1824.41 1020.92,1851.41 919.5,1864C 866.544,1870.73 813.544,1874.9 760.5,1876.5C 740.833,1876.5 721.167,1876.5 701.5,1876.5C 604.037,1869.41 512.037,1842.91 425.5,1797C 324.471,1743.65 239.638,1671.15 171,1579.5C 61.6969,1423.3 28.6969,1251.97 72,1065.5C 92.3475,981.784 123.681,902.45 166,827.5C 219.27,734.628 281.603,648.295 353,568.5C 379.801,539.365 406.967,510.531 434.5,482C 479.873,590.577 534.373,694.411 598,793.5C 699.246,641.014 781.579,478.348 845,305.5C 881.94,205.845 912.107,104.179 935.5,0.5C 1036.05,158.9 1124.22,324.566 1200,497.5C 1249.42,611.438 1289.09,728.771 1319,849.5C 1326.41,881.724 1333.24,914.057 1339.5,946.5C 1428.34,889.511 1512.51,826.177 1592,756.5C 1609.06,849.23 1618.9,942.564 1621.5,1036.5 Z"/></g>
<g><path style="opacity:0.992" fill="#ff9d32" d="M 513.5,78.5 C 554.781,104.274 590.614,136.274 621,174.5C 636.139,194.784 645.806,217.451 650,242.5C 651.812,257.591 650.145,272.257 645,286.5C 634.976,304.188 619.642,312.855 599,312.5C 561.579,309.747 540.245,289.747 535,252.5C 534.834,234.82 535.334,217.154 536.5,199.5C 536.451,176.895 533.951,154.561 529,132.5C 524.734,114.207 519.568,96.2071 513.5,78.5 Z"/></g>
<g><path style="opacity:0.995" fill="#ff9d32" d="M 100.5,225.5 C 106.38,292.693 121.88,357.693 147,420.5C 156.631,441.763 167.297,462.429 179,482.5C 193.183,509.931 198.183,538.931 194,569.5C 182.935,616.401 153.435,642.068 105.5,646.5C 84.5942,645.702 66.2609,638.535 50.5,625C 22.4575,597.41 6.29088,563.91 2,524.5C -2.2967,480.539 2.36996,437.539 16,395.5C 36.5233,334.788 64.69,278.121 100.5,225.5 Z"/></g>
<g><path style="opacity:0.995" fill="#ff9d32" d="M 1475.5,309.5 C 1505.68,355.518 1525.18,405.851 1534,460.5C 1540.82,506.592 1533.48,550.258 1512,591.5C 1500.36,612.282 1484.53,629.116 1464.5,642C 1430.48,657.878 1398.48,654.544 1368.5,632C 1341.9,605.37 1335.07,574.203 1348,538.5C 1350.79,530.929 1354.12,523.595 1358,516.5C 1403.29,451.28 1442.46,382.28 1475.5,309.5 Z"/></g>
<g><path style="opacity:1" fill="#ffcd31" d="M 897.5,573.5 C 966.489,677.431 1027.32,786.431 1080,900.5C 1124.68,997.366 1157.84,1098.03 1179.5,1202.5C 1180,1203.52 1180.67,1203.69 1181.5,1203C 1242.38,1164.14 1300.88,1121.97 1357,1076.5C 1354.05,1200.3 1331.38,1320.3 1289,1436.5C 1283.13,1451.29 1276.96,1465.96 1270.5,1480.5C 1271.33,1480.83 1272.17,1481.17 1273,1481.5C 1308.95,1475.31 1344.78,1468.48 1380.5,1461C 1384.17,1460.33 1387.83,1460.33 1391.5,1461C 1347.83,1524.04 1298.17,1582.37 1242.5,1636C 1090.31,1778.74 909.641,1840.74 700.5,1822C 613.347,1805.25 535.681,1768.92 467.5,1713C 397.862,1654.39 342.029,1584.89 300,1504.5C 275.839,1458.84 255.672,1411.51 239.5,1362.5C 240.365,1361.42 241.365,1361.25 242.5,1362C 281.168,1379.42 320.334,1395.59 360,1410.5C 364.294,1329.33 380.627,1250.66 409,1174.5C 446.649,1076.2 493.983,983.196 551,895.5C 581.422,968.358 618.589,1037.36 662.5,1102.5C 663.274,1103.71 664.107,1103.71 665,1102.5C 775.062,940.992 852.562,764.659 897.5,573.5 Z"/></g>
<g><path style="opacity:1" fill="#ffde84" d="M 952.5,1095.5 C 953.152,1096.45 953.486,1097.62 953.5,1099C 943.051,1184.86 938.551,1271.03 940,1357.5C 941.25,1379.42 944.25,1401.08 949,1422.5C 958.58,1457.73 981.413,1472.23 1017.5,1466C 1035.01,1461.91 1051.68,1455.58 1067.5,1447C 1104.45,1425.73 1138.28,1400.23 1169,1370.5C 1169.38,1389 1167.71,1407.33 1164,1425.5C 1150.3,1484.99 1125.63,1539.33 1090,1588.5C 1050.82,1643.69 1002.65,1689.19 945.5,1725C 906.155,1749.23 863.488,1763.89 817.5,1769C 767.356,1770.88 719.69,1760.88 674.5,1739C 598.437,1702.94 540.603,1647.77 501,1573.5C 467.087,1503.12 460.087,1430.12 480,1354.5C 484,1339.5 489,1324.83 495,1310.5C 518.709,1342.55 547.209,1369.38 580.5,1391C 596.768,1401.2 614.434,1405.87 633.5,1405C 639.752,1404.59 645.252,1402.42 650,1398.5C 716.07,1299.08 796.237,1212.25 890.5,1138C 910.712,1123.07 931.378,1108.9 952.5,1095.5 Z"/></g>
</svg>
